<svg id="contenu" xmlns="http://www.w3.org/2000/svg" viewBox="0 0 249.15 333.12"><defs><style>.cls-1{opacity:0.5;}.cls-2{fill:#4c4c4e;}.cls-3,.cls-8{fill:#b0b1b3;}.cls-3,.cls-5,.cls-7,.cls-8{stroke:#b0b1b3;}.cls-10,.cls-3,.cls-4,.cls-5,.cls-7,.cls-8,.cls-9{stroke-miterlimit:10;}.cls-3{stroke-width:0.52px;}.cls-10,.cls-4,.cls-5,.cls-7{fill:none;}.cls-4,.cls-9{stroke:#1f1e21;}.cls-4{stroke-width:0.25px;}.cls-10,.cls-5{stroke-linecap:round;}.cls-5,.cls-7{stroke-width:1.55px;}.cls-6{fill:#f0f0f0;}.cls-8,.cls-9{stroke-width:0.62px;}.cls-9{fill:#1f1e21;}.cls-10{stroke:#010001;stroke-width:2px;}</style></defs><title>Plan de travail 3</title><path class="cls-2" d="M54.34,149.13c0,.37.06,3.51.06,3.51s.22,1.16-2.31,1.34-1.78-1.22-1.78-1.22l.36-3.95s-.22-.86,1.84-1S54.36,148.73,54.34,149.13Z"/><path class="cls-2" d="M29.11,190.26c-.07.4-3.5,1.84-5,2.78-.84.61-1.22,1.92-.71,2.39.33.15,3.91-.35,6.51-.5,3-.17,5-.06,5-1a19,19,0,0,0-1.3-4.85c-.38-1.16-.91-2-2.39-1.69S29.56,187.84,29.11,190.26Z"/><path class="cls-2" d="M28.36,178.49c0,.09-.27-2-.37-3.15,0-2.92,1.43-3.5,3.43-3.24s2.58,3,2.57,3.35c-.05,3.11.47,10.4.27,13.87-.1,1.79-4.83,1.24-5.89.64-.12.06.77-4,.19-4.42C28.58,185.54,27.86,179.16,28.36,178.49Z"/><path class="cls-2" d="M32.74,165c-3.67.34-3.69,3.43-6,.62-1.78-2.13.07-3.58.88-4.58.94-.35,3.6,1.16,4.58,1.32C32.17,162.31,35.18,162.77,32.74,165Z"/><path class="cls-2" d="M45.13,154.7A7.8,7.8,0,0,1,46.38,153a2.63,2.63,0,0,1,2.51-.58c.73.4,1.74,1.24,1.12,3.32-.75,2.49-5.9,9.62-7.68,10.25-2.77-.05-2.87-1.14-2.2-3C41.15,160.14,45,156.49,45.13,154.7Z"/><path class="cls-2" d="M42.69,165.78c3.59-1.14,1.44-4.21.44-4.28-1.78.34-11.52-.72-11.73.69-.61,4,2.17,3.83,3.7,3C37,166.48,42.23,165.92,42.69,165.78Z"/><path class="cls-2" d="M30.32,171.86c3.51-.89,9.24-1.19,15.43-2.84,5.94-.49,6.84,4.77,2,7.35-.23-.42-6.11,1.84-7.27,1.14-.46.42-3.55-.26-3.93.06-.79.21-4-.69-4.31,0-2.13.85-4.17-.12-4.38-2.16-.15-1.38,1.6-3,2.48-3.54"/><path class="cls-2" d="M43,170.62c2.92-2.86.87-12.71,2.59-16.66,1.58-3.39,8.48-2.66,11.74-.16,1.89,1.75-.36,8.66-.66,9,.32.59-1.18,5.43-1.35,6,.07-.23.16.8,0,3.47-.28,4.14-7.66,7.29-11.29,1.92a6.64,6.64,0,0,1-1-3.61C43.05,170.55,43.06,170.77,43,170.62Z"/><path class="cls-2" d="M51.57,201.87c1,1.86,3,5.74,1.51,6.09a42,42,0,0,1-10.84,1c-.29,0-.8-1.52,0-2a29.39,29.39,0,0,0,4-2.11c.16-.6.79-1.79.91-2.22C47.64,201,48.72,198.62,51.57,201.87Z"/><path class="cls-2" d="M45.6,199c.06-.33-.83-4.78-.26-5.08a18.63,18.63,0,0,0-1.28-4.1,7.92,7.92,0,0,1-.3-2c-.5-1.28.82-3,2.58-3.17,1.58-.13,3.18,2.65,3.25,2.91.62,2,2.67,11.89,2.4,14.61-.18,1.79-4.67,1.49-5.79,1-.15.09,0-3.94-.6-4.15"/><path class="cls-2" d="M54.48,157.27A7.78,7.78,0,0,0,56,159c.54,1,3.32,6.24,6,7.85,1.63,1,3.17.59,3-1.84-.06-1.16-1.7-3.06-3.12-5.14-1.55-2.28-2.51-5.26-4-5.89-2.84-1.23-5.75.47-3.58,3.24,0,0,.14,0,0,0"/><path class="cls-2" d="M65.36,167.46a22,22,0,0,1-1.39,4.9c-.27.72-.46,5.83-3.81,3.49-.79-.55,1.11-9.13.86-10.88s2.53-3.79,4.11.44C65.39,166.09,65.14,167.17,65.36,167.46Z"/><path class="cls-2" d="M43.17,182.92c-.53-.33,2.61-7.36,3.45-8.82a30,30,0,0,1,2.09-3.66c1-1.16,6.61-3.61,6.4,2.68,0,1.06-6.59,12.4-6.35,14.91-.06,3-5.25,1.13-5.39-.73s.08-4.19-.2-4.37h0"/><path class="cls-2" d="M54.65,136.91c2.3.69,5.71,4.09,3,9.34l-.42-.21a5,5,0,0,1-4.51,4.36c-3.19.57-5.67-2.15-5-7.88,0,0-1.56-.74-1.23-1.54C47.41,138.87,50.21,135.59,54.65,136.91Z"/><circle class="cls-3" cx="45" cy="170.07" r="3.7"/><path class="cls-2" d="M60.3,174.68c-.68.48-2.73,1.62-3,2.66-.09.4.37.86,0,1.37-.54.84,0,2.2,1.73,2.19,2.62,0,1.36-1.94,3.55-4.9C63.39,174.87,62.5,173.11,60.3,174.68Z"/><polyline class="cls-4" points="82.86 14.17 82.86 278.67 241.02 278.67"/><line class="cls-4" x1="82.86" y1="278.67" x2="19.83" y2="333.12"/><path class="cls-5" d="M120.23,283.27a41.55,41.55,0,0,0-1.66,7.35c-.19,2.75,0,20.78-8,21s-21.79.21-29.23-1.85,1.2-1.69,5.85-1.88,9.26,0,14.44,0-6.83-1.64-14.7-2-2.92-1.33,2.86-1.33c0,0,8.24.44,15.29,0s34.28-2.11,49.07.66a300.13,300.13,0,0,0,30.8,3.81"/><path class="cls-6" d="M116.71,310.78c.48-.89,2.52-1.19,3.18-1.38,4.9-1.42,10.65-1.75,15.69-2.07,7-.44,16.61.12,21.71,5.57,4.13,4.41-9.82,5.24-11.39,5.25-1.21,0-2.41,0-3.62,0l-1.25,0a44.31,44.31,0,0,1-5.31-.22,76.11,76.11,0,0,1-15.37-2.77c-1.4-.44-3.47-1.17-4.36-2.48C115.39,311.74,115.92,311.16,116.71,310.78Z"/><path class="cls-2" d="M140.12,253.56c0,.38-.17,3.69-.17,3.69s.16,1.23-2.51,1.25-1.79-1.4-1.79-1.4l.64-4.11s-.18-.91,2-.92S140.17,253.14,140.12,253.56Z"/><path class="cls-2" d="M126.22,307.38c-.1.41-3.78,1.72-5.37,2.61-.91.59-1.4,1.94-.89,2.46.34.17,4.12-.13,6.86-.13,3.15,0,5.29.24,5.28-.7a20.08,20.08,0,0,0-1.07-5.16c-.33-1.24-.84-2.12-2.4-1.91S126.84,304.86,126.22,307.38Z"/><path class="cls-2" d="M124.78,295.46c0,.09-.44-2.13-.62-3.28-.23-3.06,1.23-3.77,3.35-3.64s2.92,2.92,2.94,3.32c.18,3.26,1.26,10.86,1.32,14.5,0,1.88-5,1.66-6.12,1.11-.12.07.51-4.28-.13-4.64C125.53,302.82,124.31,296.2,124.78,295.46Z"/><path class="cls-2" d="M124.55,279.87c-2.43,3-.11,5.28-3.94,5-2.91-.22-2.65-2.67-2.81-4,.42-1,3.51-1.86,4.34-2.48C122.14,278.37,124.7,276.43,124.55,279.87Z"/><path class="cls-2" d="M130.18,261.34a8.22,8.22,0,0,1,.45-2.2c.35-.72,1.28-1.7,2.15-1.64s2.2.43,2.51,2.69c.37,2.7-1.46,11.76-2.88,13.13-2.67,1.16-3.24.16-3.41-1.92C128.74,268.26,130.8,263.12,130.18,261.34Z"/><path class="cls-2" d="M132.45,273c1.77-3.54-2.12-4.16-2.9-3.46-1,1.59-9,8.15-8.06,9.35,2.58,3.4,4.47,1.16,5-.61C128.82,277.77,132.22,273.42,132.45,273Z"/><path class="cls-2" d="M124,289.72c1.46-3.51,4.83-8.51,7.34-14.75,3.33-5.3,8.32-2.74,7.43,3-.49-.07-2.3,6.29-3.62,6.83.06.65-2.46,2.81-2.43,3.34-.32.79-3.1,2.92-2.72,3.62-.63,2.32-2.72,3.42-4.58,2.32-1.25-.74-1.5-3.23-1.41-4.31"/><path class="cls-2" d="M130.52,277.25c2.62-3.39-.92-13.34.31-17.7,1.16-3.76,8.43-4,12.19-1.85,2.22,1.55.86,9.06.61,9.46.42.56-.45,5.82-.54,6.48,0-.25.28.81.48,3.61.3,4.35-6.92,8.68-11.47,3.61a7,7,0,0,1-1.57-3.61C130.59,277.16,130.63,277.39,130.52,277.25Z"/><path class="cls-2" d="M151.25,306.89c1,2,3,6.06,1.51,6.41a44.19,44.19,0,0,1-11.39.93c-.3,0-.82-1.6,0-2.08a30.74,30.74,0,0,0,4.27-2.16c.17-.63.85-1.86,1-2.32C147.14,306,148.31,303.45,151.25,306.89Z"/><path class="cls-2" d="M144.17,304.92c0-.36-2.12-4.64-1.61-5.09a19.54,19.54,0,0,0-2.39-3.82,8.4,8.4,0,0,1-.85-2c-.84-1.16,0-3.28,1.78-3.9,1.57-.56,3.93,1.85,4.08,2.08,1.17,1.89,5.88,11.37,6.32,14.2.29,1.86-4.35,2.76-5.61,2.57-.13.14-1-4-1.71-4"/><path class="cls-2" d="M136.73,290.29c-.65,0-1.28-8.09-1.23-9.87a31.72,31.72,0,0,1,.09-4.42c.32-1.56,4.29-6.65,7.25-.74.5,1,.13,14.74,1.61,16.94,1.44,2.78-4.28,3.67-5.34,2s-2-3.91-2.38-3.93h0"/><path class="cls-2" d="M141.25,240.77c2.37.87,5.71,4.66,2.52,10l-.43-.25s-.48,3.75-5,4.27c-3.38.39-5.8-2.62-4.76-8.59,0,0-1.59-.88-1.19-1.7C133.53,242.36,136.68,239.1,141.25,240.77Z"/><polyline class="cls-7" points="45.01 169.89 45.01 34.03 129.06 268.7"/><circle class="cls-8" cx="129.76" cy="270.43" r="3.15"/><path class="cls-5" d="M127.42,268.32s-2.8,6.76-6.24,13"/><path class="cls-7" d="M186.89,309.74s-15.59-3.89-28.44-10.23C133.74,287.31,130,271.88,130,271.88"/><circle class="cls-9" cx="186.54" cy="308.99" r="3.15"/><circle class="cls-9" cx="45.01" cy="30.88" r="3.15"/><path class="cls-2" d="M135.43,266.84c-.47-.74-1.25-3.45-2.32-3.79-.41-.13-.93.31-1.44-.08-.84-.63-2.59.36-2.7,2.22-.15,2.75,1.94,1.54,4.92,4C135.05,270.05,136.94,269.23,135.43,266.84Z"/><path class="cls-2" d="M140.11,260.32a8.13,8.13,0,0,0,.69,2.39c.05,1.21.6,7.44,2.53,10.15,1.16,1.63,2.8,1.91,3.7-.47.43-1.14-.33-3.66-.8-6.26-.52-2.85-.17-6-1.26-7.28-2.15-2.44-5.67-2.13-4.85,1.47,0-.06.15,0,0,0"/><path class="cls-2" d="M142.28,273.44A23,23,0,0,1,137.5,271c-.69-.42-5.93-1.63-2.85-4.62.73-.71,9.19,3,11,3s3.4,3.36-1.27,4.15C143.68,273.74,142.62,273.27,142.28,273.44Z"/><line class="cls-10" x1="45.01" y1="30.88" x2="53.26" y2="19.94"/><line class="cls-10" x1="44.59" y1="30.88" x2="36.33" y2="19.94"/></svg>